HIERARCHY
ROOT Hips
{
  OFFSET -69.4423 88.0299 51.6846
  CHANNELS 6 Xposition Yposition Zposition Zrotation Xrotation Yrotation
  JOINT Spine
  {
    OFFSET 12.0259 -0.162853 1.93176e-005
    CHANNELS 3 Zrotation Xrotation Yrotation
    JOINT Spine1
    {
      OFFSET 15.3169 -0.0121909 0
      CHANNELS 3 Zrotation Xrotation Yrotation
      JOINT Spine2
      {
        OFFSET 15.3176 -0.0121922 0
        CHANNELS 3 Zrotation Xrotation Yrotation
        JOINT Neck
        {
          OFFSET 19.9142 1.56236 0
          CHANNELS 3 Zrotation Xrotation Yrotation
          JOINT Head
          {
            OFFSET 6.92646 0 0
            CHANNELS 3 Zrotation Xrotation Yrotation
            End Site
            {
              OFFSET 20.7666 0 0
            }
          }
          JOINT LeftShoulder
          {
            OFFSET -4.94072 -1.14703 8.14416
            CHANNELS 3 Zrotation Xrotation Yrotation
            JOINT LeftArm
            {
              OFFSET 14.108 0 -2.74767e-005
              CHANNELS 3 Zrotation Xrotation Yrotation
              JOINT LeftForeArm
              {
                OFFSET 28.5802 -0.0783412 -0.0284884
                CHANNELS 3 Zrotation Xrotation Yrotation
                JOINT LeftHand
                {
                  OFFSET 27.092 0 0
                  CHANNELS 3 Zrotation Xrotation Yrotation
                  End Site
                  {
                    OFFSET 9.55928 -0.186424 0.145352
                  }
                }
              }
            }
          }
          JOINT RightShoulder
          {
            OFFSET -7.15748 -1.33027 -6.24935
            CHANNELS 3 Zrotation Xrotation Yrotation
            JOINT RightArm
            {
              OFFSET 14.108 0 1.82997e-005
              CHANNELS 3 Zrotation Xrotation Yrotation
              JOINT RightForeArm
              {
                OFFSET 28.5802 -0.0707221 2.30684e-005
                CHANNELS 3 Zrotation Xrotation Yrotation
                JOINT RightHand
                {
                  OFFSET 27.092 0 -1.30073e-005
                  CHANNELS 3 Zrotation Xrotation Yrotation
                  End Site
                  {
                    OFFSET 9.55929 -0.186417 -0.145354
                  }
                }
              }
            }
          }
        }
      }
    }
  }
  JOINT LeftUpLeg
  {
    OFFSET 0.00499725 -0.534999 8.837
    CHANNELS 3 Zrotation Xrotation Yrotation
    JOINT LeftLeg
    {
      OFFSET 39.9035 -0.00124594 0.000252775
      CHANNELS 3 Zrotation Xrotation Yrotation
      JOINT LeftFoot
      {
        OFFSET 39.6689 0 0
        CHANNELS 3 Zrotation Xrotation Yrotation
        JOINT LeftToe
        {
          OFFSET 10.1624 13.6296 0
          CHANNELS 3 Zrotation Xrotation Yrotation
          End Site
          {
            OFFSET 8.38147 0 0
          }
        }
      }
    }
  }
  JOINT RightUpLeg
  {
    OFFSET 0.00499725 -0.535 -8.837
    CHANNELS 3 Zrotation Xrotation Yrotation
    JOINT RightLeg
    {
      OFFSET 39.9036 -0.000268477 0.000106433
      CHANNELS 3 Zrotation Xrotation Yrotation
      JOINT RightFoot
      {
        OFFSET 39.6689 1.17892e-005 0
        CHANNELS 3 Zrotation Xrotation Yrotation
        JOINT RightToe
        {
          OFFSET 10.1624 13.6296 0
          CHANNELS 3 Zrotation Xrotation Yrotation
          End Site
          {
            OFFSET 8.38147 0 0
          }
        }
      }
    }
  }
}
MOTION
Frames:	18
Frame Time:	0.0333333
81.3131 88.5528 -63.9041 90.9028 -0.690629 -1.65641 1.29563 1.0085 0.521805 2.58263 2.02898 1.02106 2.58262 2.02896 1.02105 -17.9191 -1.17142 -11.935 47.8545 0.0125326 13.3752 -164.239 -3.88848 -94.5133 -16.3114 5.59955 84.9779 -21.1749 2.11756 -13.7897 9.60236 -82.0162 11.8582 -164.118 -5.75678 73.4968 -10.982 -3.44817 -85.3529 -22.0371 -2.50029 13.6644 3.25996 82.1058 -3.06578 -25.4269 -0.764724 -178.798 -36.8249 0.820966 -0.993568 1.2135 -1.42965 0.181017 90 7.95139e-015 7.7526e-015 -1.00118 -0.0879339 -172.618 -23.6884 -0.711094 0.224447 7.94067 -2.6569 -1.19975 90 -7.15625e-015 -7.95139e-015 
80.2773 88.5814 -64.1708 91.0758 -1.13927 -1.89017 1.34281 1.05887 0.556425 2.67597 2.13095 1.0883 2.67596 2.13093 1.08829 -18.1437 -1.25664 -11.8437 47.5089 -0.375344 13.1213 -164.038 -4.03949 -94.3533 -15.646 5.99437 85.222 -20.5256 2.01487 -13.4333 7.84516 -80.8611 10.1386 -163.919 -5.83259 73.6235 -11.3165 -4.06693 -85.4411 -22.5288 -2.59828 13.9263 3.64974 83.5483 -3.49454 -25.8388 -3.59819 -179.23 -31.3918 0.804064 -1.23078 -0.257418 -3.85006 -0.250795 90 -5.96354e-015 -6.55989e-015 0.435598 0.52791 -172.238 -21.6814 -0.735737 0.249977 7.50278 -2.60631 -1.1994 90 1.11319e-014 1.51076e-014 
79.1419 88.4243 -64.4501 91.2892 -1.4851 -1.94737 1.38939 1.08509 0.554492 2.76898 2.18369 1.08296 2.76896 2.18372 1.08294 -18.2053 -1.23268 -11.6198 46.7879 -0.590857 12.6409 -163.954 -4.00123 -94.1027 -15.3641 6.31448 85.2998 -19.7422 1.88395 -13.0045 5.70599 -79.4071 7.99001 -163.84 -5.73304 73.8153 -11.1825 -4.31494 -85.4709 -22.679 -2.62313 13.9995 3.30695 83.4754 -3.16549 -26.303 -3.13161 -179.19 -25.7081 0.753545 -1.46996 -1.83809 -3.73058 -0.406545 90 3.69739e-014 3.65764e-014 1.26214 0.779532 -172.003 -21.0324 -0.749852 0.247903 7.79935 -2.59613 -1.22492 90 -8.74653e-015 -1.03368e-014 
77.8325 88.3094 -64.7365 91.3122 -1.64343 -2.32201 1.4549 1.04164 0.669856 2.89826 2.10039 1.31354 2.89824 2.10037 1.31352 -18.5258 -0.983709 -11.7191 46.7445 -0.279682 12.3343 -163.603 -3.87588 -94.2036 -14.1773 6.32009 85.748 -19.0431 1.79 -12.6376 5.58409 -78.4943 7.82995 -163.496 -5.56148 73.6393 -10.8097 -4.40649 -85.2573 -22.6491 -2.61632 13.9844 2.97593 83.2367 -2.84979 -26.6651 -3.25224 -178.968 -21.0574 0.705673 -1.627 -3.50311 -2.48151 -0.34543 90 -5.56597e-015 -5.56597e-015 2.77941 1.23259 -171.462 -19.6377 -0.759027 0.270595 7.78648 -2.25678 -1.22189 90 2.38542e-015 7.95139e-016 
76.3997 88.1993 -65.0086 91.4045 -2.09331 -2.73868 1.50675 1.11611 0.70322 3.00056 2.25072 1.37739 3.00054 2.25075 1.37737 -18.6757 -0.952885 -11.2225 46.5726 -0.401605 11.8808 -163.404 -3.73641 -93.6948 -13.3274 6.33085 85.6276 -18.432 1.7041 -12.3016 5.0203 -77.776 7.28073 -163.301 -5.38935 74.09 -10.575 -4.3421 -85.2978 -22.4767 -2.57555 13.884 2.78822 83.1534 -2.66991 -27.3689 -0.0648916 -178.131 -18.064 0.664019 -1.73571 -3.1795 1.56529 0.547448 90 -4.77083e-015 -4.77083e-015 4.42761 1.27281 -171.067 -17.9637 -0.774282 0.274918 7.4843 -3.02822 -1.24153 90 -6.36111e-015 -9.54166e-015 
74.846 88.0137 -65.1541 91.7351 -3.01929 -2.36002 1.50912 1.22836 0.645372 2.98391 2.47365 1.25898 2.98389 2.47363 1.25896 -18.6303 -0.842408 -11.3483 46.0979 -0.224243 11.78 -163.455 -3.72492 -93.835 -13.2511 6.47379 85.9918 -18.1914 1.66945 -12.174 4.82988 -77.6725 7.10267 -163.323 -5.33707 73.906 -10.3134 -4.14485 -84.8838 -21.9204 -2.45866 13.5772 2.78334 83.1697 -2.63746 -27.7469 1.90859 -178.337 -15.7009 0.574275 -1.84978 -3.60758 1.40887 0.532249 90 6.75868e-015 5.96354e-015 5.69419 1.59193 -171.558 -16.8615 -0.806911 0.276193 7.61971 -3.34525 -1.26434 90 -8.74653e-015 -9.14409e-015 
73.1465 87.9742 -65.3653 91.9707 -3.8576 -2.56395 1.49106 1.40492 0.603065 2.96861 2.82551 1.17003 2.96859 2.82548 1.17002 -18.8804 -0.851628 -10.9155 46.3514 -0.197296 11.719 -163.188 -3.66957 -93.3993 -13.3545 6.61061 85.7945 -18.0952 1.65196 -12.1118 4.8743 -77.4705 7.08089 -163.035 -5.25996 74.3365 -9.75064 -3.8393 -85.1803 -21.5921 -2.40942 13.4211 3.43199 82.8596 -3.27919 -27.9423 1.49444 -178.085 -15.0201 0.524246 -1.88995 -4.63182 -0.227043 0.122368 90 -7.95139e-015 -9.14409e-015 7.35865 2.05498 -171.536 -15.165 -0.826967 0.290574 7.11778 -4.12698 -1.28152 90 6.36111e-015 7.15625e-015 
71.3132 87.8901 -65.5316 92.3094 -4.92206 -2.6661 1.40221 1.51408 0.622316 2.78937 3.04349 1.20815 2.78936 3.04346 1.20814 -18.8462 -0.64785 -11.5116 46.4969 0.543668 12.3159 -163.261 -3.71512 -94.0495 -13.1927 6.9728 86.1374 -18.4316 1.70567 -12.2905 5.21892 -77.9986 7.48067 -163.088 -5.27157 73.7202 -10.1089 -4.06462 -85.1443 -21.4658 -2.37752 13.3434 3.13216 82.5023 -2.96448 -27.9374 1.41463 -177.947 -15.2588 0.491365 -1.89454 -5.89724 -1.50158 -0.284538 90 1.66979e-014 1.53064e-014 8.81367 2.19266 -171.804 -13.8196 -0.847964 0.291631 6.38089 -5.60481 -1.34954 90 4.77083e-015 3.18055e-015 
69.3544 87.6867 -65.5853 92.8485 -5.97082 -2.57401 1.25595 1.71257 0.555188 2.49693 3.43733 1.07355 2.49692 3.43734 1.07354 -19.0469 -0.642952 -11.8603 46.907 0.809973 12.8726 -163.112 -3.89038 -94.3787 -13.2473 7.17039 86.0804 -18.6089 1.72954 -12.3835 5.175 -78.5337 7.46658 -162.937 -5.43889 73.4303 -10.1251 -4.28759 -85.5825 -21.5303 -2.3949 13.3868 3.35131 82.5092 -3.18311 -27.6155 1.66955 -177.926 -16.0051 0.494212 -1.8775 -6.15179 -1.2415 -0.246538 90 4.77083e-015 5.56597e-015 9.56853 1.92193 -172.259 -13.8299 -0.860237 0.268737 6.29481 -6.64212 -1.40809 90 8.74653e-015 7.15625e-015 
67.1369 87.5494 -65.6112 93.3213 -7.23078 -2.32803 1.10168 1.90896 0.465267 2.18963 3.82697 0.894595 2.18961 3.82694 0.894587 -19.0387 -0.490013 -11.9156 46.973 1.20605 12.9535 -163.119 -3.78976 -94.4968 -12.5396 7.35484 86.0851 -18.9568 1.78982 -12.561 5.55781 -78.6546 7.87343 -162.935 -5.30806 73.3648 -10.6196 -4.68731 -85.8111 -21.653 -2.41183 13.4385 3.29651 82.7306 -3.12825 -26.7069 2.70112 -177.968 -16.8909 0.534898 -1.83302 -5.69112 1.53765 0.468609 90 1.19271e-015 1.59028e-015 10.0622 2.34684 -173.003 -14.4921 -0.867598 0.245254 5.85469 -7.85749 -1.50794 90 -3.97569e-015 -5.56597e-015 
64.6561 87.6944 -65.4932 93.7074 -8.11719 -1.89698 0.939197 2.08814 0.32347 1.86845 4.18175 0.613391 1.86844 4.18178 0.613369 -19.0809 -0.687327 -11.037 46.8328 0.0931163 11.7586 -163.054 -3.66157 -93.6228 -11.6576 7.40523 85.8243 -19.087 1.8154 -12.6179 6.06712 -79.071 8.36318 -162.879 -5.15686 74.2805 -10.4156 -5.05594 -86.3212 -21.8951 -2.45858 13.5619 3.25251 82.7412 -3.08641 -25.7566 1.81277 -178.686 -16.9517 0.567024 -1.79028 -8.13407 3.57131 0.926945 90 9.54166e-015 7.95139e-015 11.4031 2.58674 -174.041 -13.8237 -0.886477 0.251574 3.98054 -9.07676 -1.73797 90 -1.19271e-014 -1.27222e-014 
61.9264 88.0855 -65.3259 93.7416 -8.27389 -0.786651 0.864659 1.99301 0.119338 1.72673 3.98823 0.208878 1.72672 3.98821 0.208871 -19.3305 -0.383461 -11.0025 46.7908 0.446187 11.2762 -162.75 -3.38186 -93.6467 -11.0086 7.25388 85.828 -18.9099 1.78466 -12.5295 5.56649 -79.4508 7.83215 -162.601 -4.88229 74.2399 -10.4134 -5.28997 -86.5149 -22.0244 -2.48983 13.6469 3.24259 82.7667 -3.07884 -24.108 0.864454 179.87 -16.1307 0.608257 -1.76779 -9.48895 4.93947 1.28532 90 8.74653e-015 3.18055e-015 12.2509 2.56106 -175.58 -14.9169 -0.88737 0.231929 1.76199 -9.44636 -1.99261 90 8.74653e-015 5.56597e-015 
59.0783 88.2852 -65.1772 93.6307 -8.23787 -0.364451 0.799153 1.9561 0.0253651 1.59881 3.91283 0.0235755 1.5988 3.91283 0.0235619 -19.6485 -0.266685 -10.6707 46.8491 0.375027 10.7173 -162.388 -3.18075 -93.3429 -10.285 7.0266 85.701 -18.7911 1.78305 -12.4549 6.1332 -78.3967 8.43198 -162.265 -4.68158 74.5475 -10.0548 -5.65087 -86.8214 -22.4149 -2.57171 13.8566 3.22975 82.7803 -3.07244 -21.9263 1.63852 179.227 -15.6147 0.664335 -1.73968 -9.81841 6.97889 1.86415 90 8.94531e-015 9.54166e-015 11.17 2.4753 -176.309 -19.7989 -0.877919 0.11799 -0.363388 -10.0219 -2.28016 90 -3.57812e-014 -3.57812e-014 
56.2317 88.6764 -65.0067 93.5526 -8.25929 0.435607 0.74952 1.92489 -0.150996 1.50537 3.84808 -0.327312 1.50536 3.84807 -0.327323 -19.7062 -0.192755 -10.3693 46.4553 0.450452 10.4292 -162.279 -2.96761 -93.0789 -11.9255 6.91338 85.3913 -18.7397 1.76139 -12.4224 6.48691 -78.9702 8.77959 -162.188 -4.49832 74.8364 -10.6279 -5.98556 -87.0303 -23.0881 -2.71529 14.2222 3.54646 83.5279 -3.40903 -19.11 3.79502 178.578 -13.9555 0.703366 -1.73101 -9.75045 8.69887 2.3215 90 1.98785e-016 -1.59028e-015 8.03759 2.11936 -177.669 -27.5136 -0.843702 -0.0372205 -5.69519 -11.7101 -3.22519 90 -9.54166e-015 -7.95139e-015 
53.4259 88.9798 -64.8081 93.2227 -8.3151 1.11352 0.738517 1.81263 -0.27905 1.48774 3.62197 -0.581767 1.48774 3.62196 -0.581777 -19.7905 -0.030283 -10.2911 46.251 0.853794 10.4046 -162.145 -2.73908 -93.0555 -12.9937 6.57236 85.1479 -18.9098 1.77763 -12.5198 6.03238 -78.7483 8.36047 -162.078 -4.33513 74.8829 -11.6266 -6.01353 -86.9633 -23.563 -2.81547 14.4763 3.46153 83.4346 -3.3282 -16.3258 5.61188 177.692 -12.979 0.769428 -1.67732 -9.10433 11.1082 2.85238 90 2.98177e-014 3.49861e-014 3.87728 0.7785 -179.179 -35.7636 -0.782173 -0.165582 -14.774 -13.1681 -5.03351 90 -9.93923e-015 -9.54166e-015 
50.8224 89.0598 -64.5075 92.7606 -8.27304 1.98735 0.759762 1.63835 -0.400187 1.53191 3.2717 -0.822431 1.5319 3.2717 -0.822443 -19.9215 0.206568 -9.94699 46.0453 1.01688 9.70177 -161.953 -2.31163 -92.8467 -14.5153 6.40439 85.1266 -19.6222 1.87163 -12.9184 5.89991 -79.5485 8.25334 -161.897 -3.99694 75.1708 -13.1003 -6.02319 -86.5549 -24.3551 -2.99354 14.9095 3.48137 83.5603 -3.34356 -13.3303 7.09374 176.194 -11.6377 0.835621 -1.61965 -8.80598 12.6801 3.15646 90 1.90833e-014 1.59028e-014 -1.14241 -0.00259361 179.017 -44.0072 -0.688608 -0.217773 -24.1734 -15.0573 -7.88782 90 1.07344e-014 9.54166e-015 
48.1216 89.1809 -64.0865 91.8453 -8.1453 3.71622 0.87449 1.37176 -0.696507 1.76636 2.73312 -1.41433 1.76637 2.7331 -1.41434 -19.848 0.586467 -9.91726 45.8352 1.60936 9.22713 -161.936 -1.79255 -92.9667 -16.0004 6.09556 84.7495 -20.2457 1.96275 -13.2454 8.48068 -80.7609 10.7722 -161.903 -3.60343 75.1128 -13.9345 -5.57756 -86.0493 -25.1934 -3.19058 15.3686 3.42463 83.5126 -3.28343 -8.00738 7.48384 173.471 -7.26969 0.912176 -1.55897 -10.0051 13.3147 3.23779 90 -9.74045e-015 -0 -5.52183 -0.374654 176.042 -52.8491 -0.514543 -0.184837 -19.7471 -13.1734 -5.9022 90 2.78299e-015 3.18055e-015 
45.6937 89.4015 -64.0465 91.2812 -7.58864 3.66402 0.915664 1.08991 -0.639875 1.84395 2.16984 -1.29729 1.84394 2.16986 -1.29729 -19.8519 0.694757 -9.98119 46.082 1.80377 9.20117 -161.87 -1.58231 -93.0779 -16.8206 5.01789 83.8779 -20.4656 1.98678 -13.3883 8.06693 -81.2164 10.3669 -161.888 -3.58539 75.0304 -14.2995 -4.77942 -85.6439 -25.9732 -3.38583 15.7986 4.00583 84.311 -3.86936 -5.40574 6.75583 173.079 -6.41437 0.948318 -1.52529 -9.28548 13.3879 3.08472 90 1.11319e-014 1.27222e-014 -9.92448 -1.37111 175.315 -59.1224 -0.326666 -0.181849 -14.0719 -6.90877 -2.37321 90 7.95139e-016 -1.59028e-015 
